<svg xmlns="http://www.w3.org/2000/svg" xmlns:xlink="http://www.w3.org/1999/xlink" version="1.1" x="0px" y="0px" viewBox="0 0 5 6.25" enable-background="new 0 0 5 5" xml:space="preserve"><g><path fill="#000000" d="M2.249,3.574c-0.008-0.046-0.031-0.09-0.052-0.131C2.154,3.359,2.093,3.288,2.023,3.227   C1.997,3.194,1.967,3.165,1.941,3.138c-0.076-0.08-0.143-0.159-0.195-0.257c-0.055-0.104-0.07-0.213-0.053-0.329   C1.71,2.43,1.716,2.304,1.739,2.182c0.005-0.024-0.032-0.034-0.038-0.01C1.68,2.258,1.653,2.344,1.628,2.43   c-0.021-0.057-0.05-0.11-0.084-0.159c-0.013-0.018-0.042,0-0.03,0.018C1.59,2.406,1.56,2.542,1.577,2.673   c0,0.073,0.014,0.144,0.043,0.216c0.012,0.029,0.025,0.058,0.04,0.085C1.656,2.972,1.652,2.969,1.647,2.967   C1.515,2.832,1.452,2.644,1.376,2.473c-0.046-0.103-0.1-0.199-0.17-0.287c-0.024-0.029-0.05-0.056-0.078-0.082   c0-0.015,0-0.03,0-0.045c0-0.048,0.012-0.091,0.027-0.138c0.034-0.104,0.04-0.204,0.034-0.312c-0.001-0.023-0.035-0.023-0.036,0   c-0.007,0.112-0.038,0.207-0.09,0.305c-0.015,0.029-0.03,0.063-0.04,0.099C0.998,1.992,0.974,1.971,0.951,1.95   C0.863,1.865,0.806,1.758,0.763,1.645c-0.044-0.12-0.082-0.246-0.107-0.372c-0.003-0.02-0.038-0.015-0.035,0.005   c0.016,0.117,0.016,0.235,0.035,0.353c0.02,0.115,0.062,0.232,0.134,0.325c0.07,0.09,0.161,0.159,0.247,0.234   c0.065,0.057,0.115,0.126,0.158,0.201C1.126,2.36,1.05,2.353,0.973,2.337c-0.105-0.022-0.205-0.066-0.3-0.117   C0.566,2.163,0.517,2.073,0.475,1.962C0.467,1.941,0.432,1.95,0.44,1.973c0.037,0.102,0.066,0.196,0.146,0.273   c0.076,0.072,0.181,0.134,0.278,0.172c0.054,0.021,0.109,0.037,0.165,0.049c0.052,0.011,0.1,0.022,0.145,0.052   c0.045,0.029,0.068,0.075,0.098,0.118C1.28,2.647,1.288,2.657,1.297,2.667c0.006,0.018,0.013,0.035,0.023,0.052   C1.317,2.724,1.313,2.73,1.311,2.737C1.308,2.746,1.274,2.76,1.264,2.765c-0.021,0.01-0.047,0.021-0.071,0.023   c-0.038,0.003-0.07,0.018-0.106-0.001C1.054,2.771,1.031,2.739,1.004,2.716c-0.022-0.02-0.053,0.011-0.031,0.033   c0.034,0.034,0.051,0.078,0.09,0.108C1.104,2.889,1.165,2.903,1.215,2.9C1.277,2.897,1.349,2.87,1.394,2.822   c0.035,0.069,0.074,0.134,0.124,0.192c0.028,0.032,0.06,0.06,0.093,0.086c-0.03,0-0.06,0.003-0.092,0.01   c-0.08,0.016-0.154,0.045-0.236,0.04C1.134,3.141,1.01,3.038,0.903,2.943C0.886,2.927,0.864,2.951,0.878,2.968   c0.105,0.127,0.219,0.267,0.39,0.298C1.362,3.284,1.45,3.255,1.54,3.234c0.043-0.01,0.08-0.013,0.122,0   c0.04,0.012,0.077,0.037,0.111,0.06c0.066,0.044,0.11,0.105,0.14,0.178c0.03,0.076,0.036,0.166,0.092,0.228   c0.054,0.06,0.164,0.051,0.208-0.015c0.004-0.006,0.007-0.013,0.01-0.02C2.247,3.644,2.254,3.608,2.249,3.574z"/><path fill="#000000" d="M2.751,3.574c0.007-0.046,0.031-0.09,0.051-0.131c0.043-0.084,0.104-0.155,0.174-0.217   C3.004,3.194,3.033,3.165,3.06,3.138c0.075-0.08,0.143-0.159,0.194-0.257c0.055-0.104,0.07-0.213,0.054-0.329   C3.289,2.43,3.284,2.304,3.262,2.182c-0.006-0.024,0.031-0.034,0.037-0.01C3.32,2.258,3.347,2.344,3.373,2.43   c0.02-0.057,0.049-0.11,0.083-0.159c0.013-0.018,0.042,0,0.03,0.018C3.41,2.406,3.441,2.542,3.423,2.673   c0.001,0.073-0.015,0.144-0.044,0.216C3.368,2.918,3.354,2.947,3.34,2.975c0.004-0.003,0.008-0.005,0.013-0.008   c0.132-0.135,0.194-0.323,0.271-0.494c0.046-0.103,0.1-0.199,0.17-0.287c0.023-0.029,0.049-0.056,0.078-0.082   c-0.001-0.015,0-0.03,0-0.045c0-0.048-0.013-0.091-0.027-0.138C3.811,1.817,3.806,1.717,3.811,1.608   c0.001-0.023,0.036-0.023,0.037,0c0.007,0.112,0.038,0.207,0.09,0.305c0.015,0.029,0.03,0.063,0.04,0.099   C4.002,1.992,4.026,1.971,4.049,1.95c0.088-0.085,0.146-0.192,0.188-0.305c0.045-0.12,0.083-0.246,0.107-0.372   c0.004-0.02,0.038-0.015,0.034,0.005C4.363,1.396,4.363,1.514,4.343,1.631c-0.02,0.115-0.062,0.232-0.134,0.325   C4.14,2.046,4.049,2.115,3.962,2.19C3.898,2.247,3.848,2.316,3.804,2.391C3.874,2.36,3.95,2.353,4.027,2.337   C4.132,2.314,4.232,2.271,4.326,2.22c0.108-0.058,0.157-0.147,0.199-0.258C4.533,1.941,4.567,1.95,4.56,1.973   C4.523,2.074,4.493,2.168,4.413,2.246c-0.076,0.072-0.18,0.134-0.278,0.172C4.082,2.438,4.028,2.455,3.971,2.467   c-0.052,0.011-0.1,0.022-0.145,0.052C3.781,2.547,3.757,2.594,3.728,2.636C3.72,2.647,3.711,2.657,3.702,2.667   C3.697,2.685,3.688,2.702,3.679,2.719C3.684,2.724,3.687,2.73,3.689,2.737C3.693,2.746,3.726,2.76,3.736,2.765   c0.021,0.01,0.047,0.021,0.071,0.023c0.039,0.003,0.071,0.018,0.107-0.001c0.032-0.016,0.055-0.048,0.082-0.071   c0.023-0.02,0.053,0.011,0.033,0.033C3.993,2.782,3.976,2.827,3.937,2.857C3.896,2.889,3.835,2.903,3.785,2.9   C3.723,2.897,3.651,2.87,3.606,2.822C3.571,2.891,3.532,2.956,3.481,3.015C3.454,3.046,3.423,3.075,3.39,3.101   c0.03,0,0.059,0.003,0.091,0.01c0.081,0.016,0.154,0.045,0.237,0.04C3.866,3.141,3.99,3.038,4.097,2.943   c0.018-0.016,0.039,0.008,0.025,0.025C4.016,3.095,3.903,3.235,3.731,3.267C3.637,3.284,3.55,3.255,3.46,3.234   c-0.044-0.01-0.08-0.013-0.123,0c-0.04,0.012-0.076,0.037-0.112,0.06C3.161,3.338,3.116,3.399,3.087,3.472   C3.057,3.547,3.05,3.638,2.994,3.699C2.941,3.759,2.831,3.75,2.787,3.685c-0.005-0.006-0.008-0.013-0.011-0.02   C2.754,3.644,2.746,3.608,2.751,3.574z"/></g><text x="0" y="20" fill="#000000" font-size="5px" font-weight="bold" font-family="'Helvetica Neue', Helvetica, Arial-Unicode, Arial, Sans-serif">Created by Alice Noir</text><text x="0" y="25" fill="#000000" font-size="5px" font-weight="bold" font-family="'Helvetica Neue', Helvetica, Arial-Unicode, Arial, Sans-serif">from the Noun Project</text></svg>