<svg xmlns="http://www.w3.org/2000/svg" xmlns:xlink="http://www.w3.org/1999/xlink" version="1.1" x="0px" y="0px" viewBox="0 0 100 125" enable-background="new 0 0 100 100" xml:space="preserve"><path d="M62.309,22.124v-8.779c0-1.674-1.354-3.03-3.029-3.03h-2.051c0.094-0.467,0.145-0.949,0.145-1.442  C57.372,4.808,54.064,1.5,50,1.5c-4.065,0-7.373,3.308-7.373,7.372c0,0.493,0.051,0.976,0.144,1.442h-2.05  c-1.674,0-3.03,1.356-3.03,3.03v8.779c-15.388,5.16-26.509,19.705-26.509,36.807c0,21.405,17.414,38.819,38.819,38.819  c21.403,0,38.817-17.414,38.817-38.819C88.818,41.828,77.695,27.284,62.309,22.124z M50,7.561c0.723,0,1.312,0.588,1.312,1.312  c0,0.723-0.59,1.311-1.312,1.311c-0.724,0-1.313-0.588-1.313-1.311C48.687,8.148,49.276,7.561,50,7.561z M43.75,16.375h12.498v4.247  c-2.033-0.332-4.121-0.511-6.248-0.511c-2.128,0-4.214,0.179-6.25,0.511V16.375z M50,91.689c-18.063,0-32.759-14.695-32.759-32.76  c0-18.063,14.695-32.759,32.759-32.759c18.062,0,32.758,14.696,32.758,32.759C82.758,76.994,68.062,91.689,50,91.689z"/><path d="M50,34.084c-1.674,0-3.03,1.356-3.03,3.03c0,1.674,1.355,3.03,3.03,3.03c11.031,0,20.005,8.975,20.005,20.006  c0,1.672,1.356,3.029,3.03,3.029s3.029-1.357,3.029-3.029C76.064,45.776,64.372,34.084,50,34.084z"/><text x="0" y="115" fill="#000000" font-size="5px" font-weight="bold" font-family="'Helvetica Neue', Helvetica, Arial-Unicode, Arial, Sans-serif">Created by Andrey Vasiliev</text><text x="0" y="120" fill="#000000" font-size="5px" font-weight="bold" font-family="'Helvetica Neue', Helvetica, Arial-Unicode, Arial, Sans-serif">from the Noun Project</text></svg>