<svg xmlns="http://www.w3.org/2000/svg" xmlns:xlink="http://www.w3.org/1999/xlink" version="1.1" x="0px" y="0px" viewBox="0 0 48 60" enable-background="new 0 0 48 48" xml:space="preserve"><g><path d="M24.001,48c-0.552,0-1-0.447-1-1V1c0-0.552,0.448-1,1-1c0.553,0,1,0.448,1,1v46C25.001,47.553,24.554,48,24.001,48z"/><g><g><path d="M24.001,14.666c-0.272,0-0.544-0.11-0.741-0.328l-5.903-6.506c-0.371-0.409-0.34-1.042,0.069-1.413     c0.409-0.372,1.042-0.34,1.413,0.069l5.902,6.506c0.371,0.409,0.341,1.042-0.068,1.413     C24.481,14.581,24.241,14.666,24.001,14.666z"/><path d="M24,14.666c-0.239,0-0.48-0.085-0.671-0.259c-0.409-0.371-0.44-1.003-0.069-1.413l5.902-6.506     c0.371-0.41,1.003-0.44,1.412-0.069c0.409,0.371,0.439,1.003,0.068,1.413l-5.901,6.506C24.544,14.556,24.273,14.666,24,14.666z"/></g><g><path d="M29.902,41.84c-0.272,0-0.543-0.11-0.741-0.328l-5.901-6.507c-0.371-0.409-0.34-1.042,0.069-1.413     c0.41-0.369,1.041-0.34,1.413,0.069l5.901,6.507c0.37,0.409,0.34,1.042-0.069,1.413C30.383,41.754,30.143,41.84,29.902,41.84z"/><path d="M18.098,41.84c-0.239,0-0.48-0.086-0.671-0.26c-0.409-0.371-0.44-1.003-0.069-1.412l5.903-6.507     c0.371-0.409,1.004-0.44,1.413-0.068c0.409,0.371,0.439,1.003,0.068,1.412l-5.902,6.507C18.642,41.729,18.37,41.84,18.098,41.84z     "/></g></g><path d="M47,25H1c-0.552,0-1-0.447-1-1c0-0.552,0.448-1,1-1h46c0.553,0,1,0.448,1,1C48,24.553,47.553,25,47,25z"/><g><g><path d="M34.334,25c-0.272,0-0.543-0.11-0.74-0.328c-0.371-0.409-0.341-1.042,0.068-1.413l6.507-5.903     c0.408-0.371,1.04-0.341,1.412,0.069c0.371,0.409,0.341,1.042-0.068,1.413l-6.507,5.902C34.814,24.914,34.574,25,34.334,25z"/><path d="M40.841,30.902c-0.24,0-0.48-0.086-0.672-0.26l-6.507-5.902c-0.409-0.371-0.439-1.003-0.068-1.412     c0.371-0.41,1.003-0.441,1.412-0.069l6.507,5.903c0.409,0.371,0.439,1.003,0.068,1.412     C41.384,30.792,41.113,30.902,40.841,30.902z"/></g><g><path d="M7.161,30.902c-0.272,0-0.544-0.11-0.741-0.328c-0.371-0.409-0.34-1.041,0.069-1.412l6.506-5.903     c0.409-0.372,1.042-0.34,1.413,0.069c0.371,0.409,0.34,1.042-0.069,1.412l-6.506,5.902C7.641,30.816,7.4,30.902,7.161,30.902z"/><path d="M13.666,25c-0.24,0-0.48-0.086-0.671-0.26l-6.506-5.902c-0.409-0.371-0.44-1.003-0.069-1.413s1.003-0.44,1.413-0.069     l6.506,5.903c0.409,0.371,0.44,1.003,0.069,1.413C14.209,24.89,13.938,25,13.666,25z"/></g></g><path d="M7.735,41.264c-0.256,0-0.512-0.098-0.707-0.293c-0.391-0.391-0.391-1.023,0-1.414L39.559,7.029   c0.391-0.391,1.023-0.391,1.414,0s0.391,1.023,0,1.414L8.442,40.971C8.247,41.166,7.991,41.264,7.735,41.264z"/><g><g><path d="M33.022,15.979c-0.017,0-0.033,0-0.05-0.001c-0.552-0.027-0.977-0.496-0.95-1.047L32.549,4.1     c0.027-0.552,0.515-0.953,1.048-0.951c0.552,0.027,0.977,0.496,0.95,1.047l-0.526,10.831     C33.994,15.563,33.553,15.979,33.022,15.979z"/><path d="M33.021,15.979c-0.53,0-0.972-0.417-0.998-0.951c-0.026-0.552,0.398-1.021,0.95-1.048l10.83-0.527     c0.54-0.025,1.021,0.398,1.048,0.95c0.026,0.552-0.398,1.021-0.95,1.048l-10.83,0.527C33.054,15.979,33.037,15.979,33.021,15.979     z"/></g><g><path d="M14.453,44.85c-0.017,0-0.033,0-0.05-0.001c-0.551-0.027-0.977-0.496-0.95-1.048l0.528-10.83     c0.027-0.552,0.501-0.988,1.048-0.95c0.551,0.027,0.977,0.496,0.95,1.048l-0.528,10.83C15.425,44.434,14.983,44.85,14.453,44.85z     "/><path d="M4.147,34.547c-0.53,0-0.972-0.416-0.998-0.951c-0.027-0.552,0.399-1.021,0.95-1.048l10.832-0.527     c0.546-0.039,1.021,0.397,1.048,0.95c0.027,0.552-0.399,1.021-0.95,1.048L4.197,34.546C4.18,34.547,4.164,34.547,4.147,34.547z"/></g></g><path d="M40.264,41.264c-0.256,0-0.512-0.098-0.707-0.293L7.029,8.443c-0.391-0.391-0.391-1.023,0-1.414s1.023-0.391,1.414,0   l32.528,32.528c0.391,0.391,0.391,1.023,0,1.414C40.775,41.166,40.52,41.264,40.264,41.264z"/><g><g><path d="M43.853,34.546c-0.017,0-0.033,0-0.05-0.001l-10.83-0.526c-0.552-0.027-0.977-0.496-0.95-1.048     c0.027-0.552,0.511-0.969,1.048-0.95l10.83,0.526c0.552,0.027,0.977,0.496,0.95,1.048C44.824,34.13,44.383,34.546,43.853,34.546z     "/><path d="M33.545,44.85c-0.53,0-0.972-0.416-0.998-0.951l-0.524-10.83c-0.026-0.552,0.399-1.021,0.95-1.048     c0.545-0.03,1.021,0.398,1.048,0.95l0.524,10.83c0.026,0.552-0.399,1.021-0.95,1.048C33.578,44.85,33.562,44.85,33.545,44.85z"/></g><g><path d="M14.981,15.979c-0.017,0-0.033,0-0.049-0.001L4.101,15.452c-0.552-0.027-0.977-0.496-0.951-1.047     c0.027-0.552,0.5-0.968,1.047-0.951l10.831,0.526c0.552,0.027,0.977,0.496,0.951,1.047     C15.953,15.563,15.511,15.979,14.981,15.979z"/><path d="M14.979,15.979c-0.53,0-0.972-0.417-0.998-0.952L13.454,4.197c-0.027-0.552,0.399-1.021,0.95-1.048     c0.542-0.03,1.021,0.398,1.048,0.951l0.527,10.831c0.027,0.552-0.399,1.021-0.95,1.048     C15.012,15.979,14.996,15.979,14.979,15.979z"/></g></g></g><text x="0" y="63" fill="#000000" font-size="5px" font-weight="bold" font-family="'Helvetica Neue', Helvetica, Arial-Unicode, Arial, Sans-serif">Created by Creative Stall</text><text x="0" y="68" fill="#000000" font-size="5px" font-weight="bold" font-family="'Helvetica Neue', Helvetica, Arial-Unicode, Arial, Sans-serif">from the Noun Project</text></svg>