<svg xmlns="http://www.w3.org/2000/svg" xmlns:xlink="http://www.w3.org/1999/xlink" version="1.1" x="0px" y="0px" viewBox="0 0 100 125" style="enable-background:new 0 0 100 100;" xml:space="preserve"><path d="M8.9,90.3c-1.2,0.6-1.7,2.1-1.1,3.4s2.1,1.7,3.4,1.1l36.4-18.2v16c0,1.4,1.1,2.5,2.5,2.5s2.5-1.1,2.5-2.5v-16l36.4,18.2  c0.4,0.2,0.7,0.3,1.1,0.3c0.9,0,1.8-0.5,2.2-1.4c0.6-1.2,0.1-2.7-1.1-3.4L52.5,71v-4.4l31.4,15.7c0.4,0.2,0.7,0.3,1.1,0.3  c0.9,0,1.8-0.5,2.2-1.4c0.6-1.2,0.1-2.7-1.1-3.4L52.5,61v-4.4l26.4,13.2c0.4,0.2,0.7,0.3,1.1,0.3c0.9,0,1.8-0.5,2.2-1.4  c0.6-1.2,0.1-2.7-1.1-3.4L52.5,51v-4.4l21.4,10.7c0.4,0.2,0.7,0.3,1.1,0.3c0.9,0,1.8-0.5,2.2-1.4c0.6-1.2,0.1-2.7-1.1-3.4L52.5,41  v-4.4l16.4,8.2c0.4,0.2,0.7,0.3,1.1,0.3c0.9,0,1.8-0.5,2.2-1.4c0.6-1.2,0.1-2.7-1.1-3.4L52.5,31v-4.4l11.4,5.7  c0.4,0.2,0.7,0.3,1.1,0.3c0.9,0,1.8-0.5,2.2-1.4c0.6-1.2,0.1-2.7-1.1-3.4L52.5,21v-4.4l6.4,3.2c0.4,0.2,0.7,0.3,1.1,0.3  c0.9,0,1.8-0.5,2.2-1.4c0.6-1.2,0.1-2.7-1.1-3.4L52.5,11V7.5C52.5,6.1,51.4,5,50,5s-2.5,1.1-2.5,2.5V11l-8.6,4.3  c-1.2,0.6-1.7,2.1-1.1,3.4c0.6,1.2,2.1,1.7,3.4,1.1l6.4-3.2V21l-13.6,6.8c-1.2,0.6-1.7,2.1-1.1,3.4c0.6,1.2,2.1,1.7,3.4,1.1  l11.4-5.7V31l-18.6,9.3c-1.2,0.6-1.7,2.1-1.1,3.4s2.1,1.7,3.4,1.1l16.4-8.2V41L23.9,52.8c-1.2,0.6-1.7,2.1-1.1,3.4s2.1,1.7,3.4,1.1  l21.4-10.7V51L18.9,65.3c-1.2,0.6-1.7,2.1-1.1,3.4c0.6,1.2,2.1,1.7,3.4,1.1l26.4-13.2V61L13.9,77.8c-1.2,0.6-1.7,2.1-1.1,3.4  c0.6,1.2,2.1,1.7,3.4,1.1l31.4-15.7V71L8.9,90.3z"/><text x="0" y="115" fill="#000000" font-size="5px" font-weight="bold" font-family="'Helvetica Neue', Helvetica, Arial-Unicode, Arial, Sans-serif">Created by Arthur Shlain</text><text x="0" y="120" fill="#000000" font-size="5px" font-weight="bold" font-family="'Helvetica Neue', Helvetica, Arial-Unicode, Arial, Sans-serif">from the Noun Project</text></svg>