<svg xmlns="http://www.w3.org/2000/svg" xmlns:xlink="http://www.w3.org/1999/xlink" version="1.1" x="0px" y="0px" viewBox="0 0 100 125" enable-background="new 0 0 100 100" xml:space="preserve"><path d="M60.245,46.466v-3.438l4.415,4.414c0.541,0.542,1.416,0.542,1.957,0c0.54-0.54,0.54-1.415,0-1.955l-4.521-4.521h3.646  c0.765,0,1.384-0.62,1.384-1.384c0-0.763-0.619-1.382-1.384-1.382H59.33l-7.819-7.82h2.155l5.128,5.127  c0.539,0.542,1.415,0.542,1.955,0c0.541-0.54,0.541-1.415,0-1.955l-3.171-3.172h1.621l5.127,5.127c0.54,0.542,1.416,0.542,1.956,0  c0.54-0.54,0.54-1.415,0-1.955l-3.172-3.172h1.622l5.127,5.127c0.54,0.542,1.415,0.542,1.955,0c0.54-0.54,0.541-1.415,0-1.955  l-3.171-3.172h2.192c0.765,0,1.385-0.618,1.385-1.382c0-0.765-0.62-1.384-1.385-1.384h-2.192l3.171-3.171  c0.54-0.539,0.54-1.416,0-1.955c-0.541-0.542-1.416-0.542-1.955,0l-5.127,5.126H63.11l3.172-3.171c0.54-0.539,0.54-1.416,0-1.955  c-0.541-0.542-1.416-0.542-1.956,0l-5.127,5.126h-1.621l3.171-3.171c0.541-0.539,0.541-1.416,0-1.955  c-0.54-0.542-1.416-0.542-1.955,0l-5.128,5.126h-2.054l7.873-7.872h6.205c0.764,0,1.383-0.619,1.383-1.384  c0-0.764-0.619-1.383-1.383-1.383h-3.438l4.414-4.417c0.541-0.539,0.541-1.415,0-1.955c-0.541-0.54-1.414-0.54-1.955,0l-4.521,4.521  v-3.646c0-0.765-0.618-1.383-1.383-1.383c-0.764,0-1.383,0.618-1.383,1.383v6.413l-7.819,7.819v-2.156l5.127-5.127  c0.542-0.541,0.542-1.416,0-1.957c-0.54-0.54-1.414-0.54-1.955,0l-3.172,3.172v-1.621l5.127-5.128c0.542-0.539,0.542-1.415,0-1.955  c-0.54-0.541-1.414-0.541-1.955,0l-3.172,3.172v-1.622l5.127-5.127c0.542-0.54,0.542-1.416,0-1.955c-0.54-0.542-1.414-0.542-1.955,0  l-3.172,3.171V6.383C49.605,5.62,48.987,5,48.223,5s-1.384,0.619-1.384,1.383v2.194l-3.171-3.171c-0.54-0.542-1.416-0.542-1.956,0  c-0.541,0.541-0.541,1.416,0,1.955l5.127,5.127v1.621l-3.171-3.171c-0.54-0.541-1.416-0.541-1.956,0  c-0.541,0.54-0.541,1.416,0,1.955l5.127,5.127v1.622l-3.171-3.171c-0.54-0.542-1.416-0.542-1.956,0c-0.541,0.54-0.541,1.416,0,1.955  l5.127,5.127v2.054l-7.872-7.873V11.53c0-0.765-0.619-1.384-1.383-1.384S36.2,10.766,36.2,11.53v3.439l-4.416-4.416  c-0.541-0.542-1.417-0.542-1.956,0c-0.541,0.539-0.541,1.415,0,1.955l4.52,4.521h-3.646c-0.764,0-1.383,0.618-1.383,1.382  s0.62,1.384,1.383,1.384h6.412l7.821,7.818h-2.156l-5.127-5.127c-0.541-0.54-1.416-0.54-1.956,0c-0.54,0.542-0.541,1.416,0,1.957  l3.172,3.171h-1.621l-5.127-5.127c-0.541-0.54-1.416-0.54-1.956,0c-0.54,0.542-0.541,1.416,0,1.957l3.171,3.171h-1.621l-5.127-5.127  c-0.54-0.54-1.416-0.54-1.955,0c-0.54,0.542-0.541,1.416,0,1.957l3.172,3.171h-2.195c-0.764,0-1.383,0.619-1.383,1.384  c0,0.765,0.619,1.382,1.382,1.382h2.194l-3.171,3.172c-0.541,0.539-0.541,1.415,0,1.955c0.541,0.542,1.416,0.542,1.956,0  l5.127-5.127h1.622l-3.172,3.172c-0.541,0.539-0.541,1.415,0,1.955c0.541,0.542,1.416,0.542,1.956,0l5.127-5.127h1.621l-3.171,3.172  c-0.541,0.539-0.541,1.415,0,1.955c0.541,0.542,1.416,0.542,1.956,0l5.126-5.127h2.054l-7.872,7.875h-6.204  c-0.764,0-1.383,0.618-1.383,1.382c0,0.764,0.619,1.383,1.383,1.383h3.438l-4.416,4.416c-0.541,0.54-0.541,1.416,0,1.956  c0.54,0.542,1.416,0.542,1.956,0l4.52-4.521v3.646c0,0.765,0.619,1.384,1.383,1.384s1.383-0.619,1.383-1.384v-6.412l7.82-7.82v2.155  l-5.128,5.129c-0.541,0.54-0.541,1.415,0,1.955c0.541,0.541,1.416,0.541,1.956,0l3.172-3.171v1.621l-5.128,5.127  c-0.541,0.542-0.541,1.416,0,1.956c0.541,0.541,1.416,0.541,1.956,0l3.172-3.172v1.622l-5.128,5.127  c-0.541,0.541-0.541,1.415,0,1.957c0.541,0.539,1.416,0.54,1.956,0l3.172-3.173v2.194c-0.001,0.764,0.618,1.383,1.383,1.383  s1.383-0.619,1.383-1.383v-2.194l3.172,3.173c0.539,0.539,1.415,0.539,1.955,0c0.542-0.543,0.542-1.418,0-1.957l-5.127-5.127v-1.622  l3.172,3.172c0.539,0.541,1.415,0.541,1.955,0c0.542-0.54,0.542-1.416,0-1.956l-5.127-5.127v-1.621l3.172,3.171  c0.539,0.541,1.415,0.541,1.955,0c0.542-0.54,0.542-1.416,0-1.955l-5.127-5.127v-2.055l7.873,7.873v6.206  c0,0.763,0.619,1.384,1.384,1.384C59.626,47.85,60.245,47.229,60.245,46.466z M92.432,81.096l-2.269-2.268h1.569  c0.546,0,0.988-0.443,0.988-0.989c0-0.547-0.442-0.989-0.988-0.989h-1.569l2.269-2.268c0.386-0.386,0.386-1.013,0-1.398  c-0.388-0.386-1.013-0.386-1.399,0l-3.665,3.666h-1.161l2.27-2.268c0.386-0.386,0.386-1.013,0-1.398  c-0.387-0.386-1.013-0.386-1.399,0L83.41,76.85h-1.159l2.268-2.268c0.387-0.386,0.387-1.013,0-1.398s-1.013-0.386-1.398,0  l-3.667,3.666h-1.469l5.63-5.63h4.438c0.546,0,0.989-0.442,0.989-0.989c0-0.546-0.443-0.989-0.989-0.989h-2.459l3.158-3.158  c0.386-0.385,0.386-1.012,0-1.397c-0.388-0.387-1.013-0.387-1.399,0l-3.232,3.232v-2.607c0-0.548-0.442-0.989-0.989-0.989  c-0.546,0-0.989,0.441-0.989,0.989v4.586l-5.591,5.591v-1.541l3.666-3.667c0.387-0.387,0.387-1.013,0-1.399  c-0.387-0.386-1.012-0.386-1.397,0l-2.269,2.269v-1.159l3.666-3.666c0.387-0.388,0.387-1.013,0-1.4  c-0.387-0.386-1.012-0.386-1.397,0l-2.269,2.27v-1.159l3.666-3.667c0.387-0.386,0.387-1.013,0-1.398  c-0.387-0.388-1.012-0.388-1.397,0l-2.269,2.269v-1.569c0-0.546-0.443-0.989-0.989-0.989c-0.547,0-0.989,0.443-0.989,0.989v1.569  l-2.268-2.269c-0.386-0.388-1.013-0.388-1.398,0c-0.387,0.386-0.387,1.013,0,1.398l3.666,3.666v1.16l-2.268-2.27  c-0.386-0.386-1.013-0.386-1.398,0c-0.387,0.388-0.387,1.013,0,1.4l3.666,3.666v1.159l-2.268-2.269  c-0.386-0.386-1.013-0.386-1.398,0c-0.387,0.388-0.387,1.013,0,1.4l3.666,3.666v1.469l-5.63-5.631v-4.437  c0-0.548-0.442-0.99-0.99-0.99c-0.545,0-0.988,0.442-0.988,0.99v2.458l-3.158-3.157c-0.386-0.388-1.013-0.388-1.397,0  c-0.388,0.386-0.388,1.013,0,1.398l3.231,3.233h-2.606c-0.548,0-0.99,0.442-0.99,0.988c0,0.547,0.442,0.989,0.99,0.989h4.585  l5.592,5.592h-1.541l-3.667-3.666c-0.387-0.388-1.012-0.388-1.399,0c-0.386,0.386-0.386,1.012,0,1.397l2.27,2.269h-1.159  l-3.667-3.666c-0.387-0.388-1.013-0.388-1.398,0c-0.385,0.386-0.388,1.012,0,1.397l2.269,2.269h-1.16l-3.667-3.666  c-0.386-0.388-1.013-0.388-1.397,0c-0.386,0.386-0.386,1.012,0,1.397l2.269,2.269h-1.57c-0.546,0-0.989,0.442-0.989,0.989  c0,0.546,0.443,0.989,0.989,0.989h1.569l-2.27,2.268c-0.387,0.385-0.387,1.012,0,1.397c0.387,0.388,1.013,0.388,1.399,0l3.666-3.665  h1.159l-2.268,2.268c-0.387,0.385-0.387,1.012,0,1.397c0.387,0.388,1.013,0.388,1.398,0l3.666-3.665h1.159l-2.268,2.268  c-0.387,0.385-0.387,1.012,0,1.397c0.388,0.388,1.013,0.388,1.397,0l3.667-3.665h1.468l-5.628,5.63h-4.437  c-0.546,0-0.989,0.442-0.989,0.989c0,0.546,0.443,0.988,0.989,0.988h2.458l-3.157,3.157c-0.386,0.387-0.386,1.013,0,1.399  s1.013,0.387,1.398,0l3.233-3.231v2.605c0,0.548,0.442,0.991,0.989,0.991c0.546,0,0.989-0.443,0.989-0.991v-4.584l5.591-5.592v1.541  l-3.666,3.667c-0.387,0.386-0.387,1.012,0,1.398c0.386,0.387,1.013,0.387,1.397,0l2.269-2.269v1.16l-3.666,3.665  c-0.387,0.388-0.387,1.013,0,1.4c0.386,0.386,1.013,0.386,1.397,0l2.269-2.27v1.161l-3.666,3.665c-0.387,0.388-0.387,1.013,0,1.4  c0.386,0.385,1.013,0.386,1.397,0l2.269-2.27v1.568c0,0.547,0.442,0.989,0.989,0.989c0.546,0,0.989-0.442,0.989-0.989v-1.568  l2.269,2.27c0.385,0.385,1.011,0.385,1.397,0c0.387-0.389,0.387-1.014,0-1.4l-3.666-3.665v-1.161l2.269,2.27  c0.385,0.386,1.011,0.386,1.397,0c0.387-0.388,0.387-1.013,0-1.4l-3.666-3.665v-1.16l2.269,2.269c0.385,0.387,1.011,0.387,1.397,0  s0.387-1.013,0-1.398l-3.666-3.666v-1.47l5.629,5.63v4.438c0,0.546,0.443,0.99,0.989,0.99c0.547,0,0.989-0.444,0.989-0.99v-2.459  l3.158,3.158c0.386,0.387,1.013,0.387,1.398,0s0.386-1.013,0-1.399l-3.233-3.232h2.608c0.547,0,0.99-0.442,0.99-0.989  s-0.443-0.989-0.99-0.989h-4.586l-5.592-5.591h1.542l3.667,3.665c0.386,0.388,1.012,0.388,1.398,0c0.387-0.386,0.387-1.011,0-1.397  l-2.268-2.268h1.159l3.666,3.665c0.387,0.388,1.013,0.388,1.399,0c0.386-0.386,0.386-1.011,0-1.397l-2.27-2.268h1.161l3.665,3.665  c0.387,0.388,1.013,0.388,1.399,0C92.817,82.107,92.818,81.482,92.432,81.096z M27.381,64.374c0-0.319-0.26-0.579-0.58-0.579h-0.918  l1.328-1.327c0.227-0.226,0.227-0.594,0-0.819c-0.226-0.227-0.593-0.227-0.819,0l-2.147,2.146h-0.68l1.329-1.327  c0.227-0.226,0.227-0.594,0-0.819c-0.227-0.227-0.593-0.227-0.819,0l-2.147,2.146h-0.679l1.329-1.327  c0.226-0.226,0.226-0.594,0-0.819c-0.227-0.227-0.593-0.227-0.819,0l-2.147,2.146h-0.86l3.297-3.297h2.598  c0.32,0,0.579-0.26,0.579-0.579c0-0.32-0.259-0.579-0.579-0.579h-1.439l1.849-1.851c0.226-0.226,0.226-0.592,0-0.818  c-0.227-0.227-0.593-0.227-0.819,0l-1.894,1.895v-1.528c0-0.321-0.26-0.579-0.58-0.579s-0.579,0.258-0.579,0.579v2.687l-3.275,3.274  v-0.903l2.147-2.148c0.227-0.226,0.227-0.592,0-0.819c-0.226-0.226-0.592-0.226-0.818,0l-1.329,1.329v-0.679l2.147-2.147  c0.227-0.227,0.227-0.593,0-0.819c-0.226-0.227-0.592-0.227-0.818,0L17.91,58.14v-0.679l2.147-2.148  c0.227-0.226,0.227-0.592,0-0.819c-0.226-0.227-0.592-0.227-0.818,0l-1.329,1.329v-0.919c0-0.32-0.259-0.579-0.579-0.579  c-0.32,0-0.58,0.259-0.58,0.579v0.919l-1.327-1.329c-0.227-0.227-0.593-0.227-0.82,0c-0.226,0.228-0.226,0.594,0,0.819l2.147,2.147  v0.68l-1.327-1.329c-0.227-0.227-0.593-0.227-0.82,0c-0.226,0.227-0.226,0.593,0,0.819l2.147,2.147v0.679l-1.327-1.329  c-0.227-0.226-0.593-0.226-0.82,0c-0.226,0.228-0.226,0.594,0,0.82l2.147,2.147v0.86l-3.297-3.297v-2.6  c0-0.32-0.259-0.579-0.58-0.579c-0.319,0-0.578,0.259-0.578,0.579v1.439l-1.851-1.849c-0.226-0.227-0.593-0.227-0.818,0  c-0.227,0.226-0.227,0.594,0,0.819l1.893,1.893H9.994c-0.321,0-0.581,0.26-0.581,0.58c0,0.319,0.259,0.58,0.581,0.58h2.685  l3.275,3.273h-0.903l-2.147-2.146c-0.227-0.227-0.593-0.227-0.82,0c-0.226,0.226-0.226,0.592,0,0.818l1.33,1.328h-0.679  l-2.148-2.146c-0.227-0.227-0.592-0.227-0.819,0c-0.226,0.226-0.227,0.592,0,0.818l1.329,1.328h-0.679l-2.147-2.146  c-0.226-0.227-0.593-0.227-0.818,0c-0.226,0.226-0.226,0.592,0,0.818l1.329,1.328h-0.92c-0.319,0-0.579,0.26-0.579,0.579  c0,0.321,0.26,0.58,0.579,0.58h0.919l-1.329,1.328c-0.226,0.226-0.226,0.593,0,0.818c0.227,0.227,0.593,0.227,0.82,0l2.147-2.146  h0.679l-1.328,1.328c-0.227,0.226-0.227,0.593,0,0.818c0.227,0.227,0.593,0.227,0.819,0l2.147-2.146h0.679l-1.328,1.328  c-0.226,0.226-0.226,0.593,0,0.818c0.227,0.227,0.593,0.227,0.819,0l2.147-2.146h0.86l-3.296,3.297h-2.598  c-0.32,0-0.58,0.259-0.58,0.58c0,0.319,0.259,0.578,0.58,0.578h1.439L9.605,71.26c-0.226,0.226-0.226,0.592,0,0.818  c0.226,0.228,0.593,0.228,0.819,0l1.893-1.893v1.526c0,0.321,0.259,0.58,0.579,0.58c0.32,0,0.58-0.259,0.58-0.58v-2.685l3.274-3.275  v0.902l-2.147,2.148c-0.226,0.226-0.226,0.592,0,0.818c0.227,0.227,0.593,0.227,0.818,0l1.329-1.328v0.679l-2.147,2.147  c-0.226,0.227-0.226,0.593,0,0.82c0.227,0.226,0.593,0.226,0.818,0l1.329-1.33v0.68l-2.147,2.147c-0.226,0.227-0.226,0.593,0,0.819  c0.227,0.226,0.593,0.227,0.818,0l1.329-1.329v0.919c0,0.319,0.26,0.579,0.58,0.579c0.32,0,0.579-0.26,0.579-0.579v-0.919  l1.329,1.329c0.226,0.226,0.592,0.226,0.818,0c0.227-0.228,0.227-0.594,0-0.819l-2.147-2.147v-0.68l1.329,1.33  c0.226,0.226,0.592,0.226,0.818,0c0.227-0.228,0.227-0.594,0-0.82l-2.147-2.147v-0.679l1.329,1.328c0.226,0.227,0.592,0.227,0.818,0  c0.227-0.227,0.227-0.593,0-0.818l-2.147-2.147v-0.861l3.297,3.297v2.599c0,0.321,0.26,0.58,0.58,0.58  c0.32,0,0.579-0.259,0.579-0.58v-1.438l1.85,1.849c0.226,0.227,0.593,0.227,0.819,0c0.226-0.226,0.226-0.594,0-0.819l-1.894-1.894  h1.527c0.321,0,0.581-0.259,0.581-0.579c0-0.319-0.26-0.579-0.581-0.579h-2.686l-3.275-3.274h0.903l2.147,2.146  c0.227,0.227,0.593,0.227,0.819,0c0.226-0.226,0.226-0.593,0-0.818l-1.329-1.328h0.679l2.147,2.146c0.226,0.227,0.592,0.227,0.819,0  c0.227-0.226,0.227-0.593,0-0.818l-1.329-1.328h0.68l2.147,2.146c0.226,0.227,0.593,0.227,0.819,0c0.227-0.226,0.227-0.593,0-0.818  l-1.328-1.328h0.918C27.122,64.954,27.381,64.695,27.381,64.374z"/><text x="0" y="115" fill="#000000" font-size="5px" font-weight="bold" font-family="'Helvetica Neue', Helvetica, Arial-Unicode, Arial, Sans-serif">Created by Luke Peek</text><text x="0" y="120" fill="#000000" font-size="5px" font-weight="bold" font-family="'Helvetica Neue', Helvetica, Arial-Unicode, Arial, Sans-serif">from the Noun Project</text></svg>