<svg xmlns="http://www.w3.org/2000/svg" xmlns:xlink="http://www.w3.org/1999/xlink" version="1.1" x="0px" y="0px" viewBox="0 0 100 125" style="enable-background:new 0 0 100 100;" xml:space="preserve"><style type="text/css">
	.st0{fill:none;stroke:#000000;stroke-width:2;stroke-linecap:round;stroke-linejoin:round;stroke-miterlimit:10;}
	.st1{stroke:#000000;stroke-width:0.5;stroke-linecap:round;stroke-linejoin:round;stroke-miterlimit:10;}
	.st2{stroke:#000000;stroke-width:0.25;stroke-linecap:round;stroke-linejoin:round;stroke-miterlimit:10;}
	.st3{fill:none;stroke:#000000;stroke-width:2;stroke-miterlimit:10;}
</style><path d="M67.8,42c0,0,0.1,0.1,0.1,0.1l1.1,0l0.6,0.9c0,0,0.1,0.1,0.1,0.1c0,0,0,0,0,0c0,0,0.1,0,0.1-0.1l0.3-1l1-0.3  c0,0,0.1-0.1,0.1-0.1c0,0,0-0.1,0-0.1l-0.9-0.6l0-1.1c0,0,0-0.1-0.1-0.1c0,0-0.1,0-0.1,0l-0.9,0.6l-1-0.4c0,0-0.1,0-0.1,0  c0,0,0,0.1,0,0.1l0.3,1l-0.7,0.8C67.8,41.9,67.8,41.9,67.8,42z"/><path d="M13.1,64.6l-0.8-1.5c0,0-0.1-0.1-0.1-0.1c0,0-0.1,0-0.1,0.1l-0.7,1.5L9.7,65c0,0-0.1,0-0.1,0.1c0,0,0,0.1,0,0.1l1.3,1.1  l-0.2,1.7c0,0,0,0.1,0.1,0.1c0,0,0,0,0.1,0c0,0,0,0,0.1,0l1.5-0.9l1.5,0.7c0,0,0.1,0,0.1,0s0.1-0.1,0-0.1l-0.4-1.6l1.2-1.2  c0,0,0-0.1,0-0.1c0,0-0.1-0.1-0.1-0.1L13.1,64.6z"/><path d="M78.7,37.1c-0.6-0.4-0.2-2.4,0-3.8c0.4-2.3,0.9-4.9-0.9-5.9c-1.8-1.1-3.8,0.6-5.6,2.2c-1.1,1-2.7,2.3-3.3,1.9  c-0.6-0.4-0.2-2.4,0-3.8c0.4-2.3,0.9-4.9-0.9-5.9c-1.8-1.1-3.8,0.7-5.6,2.2c-1.1,1-2.7,2.3-3.3,1.9c-0.6-0.4-0.2-2.4,0-3.8  c0.4-2.3,0.9-4.9-0.9-5.9c-1.8-1.1-3.8,0.6-5.6,2.2c-1.1,1-2.7,2.3-3.3,1.9c-0.6-0.4-0.2-2.4,0-3.8c0.4-2.3,0.9-4.9-0.9-5.9  c-0.5-0.3-1.1-0.1-1.4,0.4c-0.3,0.5-0.1,1.1,0.4,1.4c0.6,0.4,0.2,2.4,0,3.8c-0.4,2.3-0.9,4.9,0.9,5.9c1.8,1.1,3.8-0.6,5.6-2.2  c1.1-1,2.7-2.3,3.3-1.9c0.6,0.4,0.2,2.4,0,3.8c-0.4,2.3-0.9,4.9,0.9,5.9c1.8,1.1,3.8-0.6,5.6-2.2c1.1-1,2.7-2.3,3.3-1.9  c0.6,0.4,0.2,2.4,0,3.8c-0.4,2.3-0.9,4.9,0.9,5.9c1.8,1.1,3.8-0.6,5.6-2.2c1.1-1,2.7-2.3,3.3-1.9c0.6,0.4,0.2,2.4,0,3.8  c-0.4,2.3-0.9,4.9,0.9,5.9c0.4,0.2,0.8,0.3,1.2,0.3c1.5,0,3-1.3,4.4-2.5c1.1-1,2.7-2.3,3.3-1.9c0.5,0.3,1.1,0.1,1.4-0.4  c0.3-0.5,0.1-1.1-0.4-1.4c-1.8-1.1-3.8,0.6-5.6,2.2C80.8,36.1,79.3,37.4,78.7,37.1z"/><path d="M36.3,82c-1.8,0.1-3.7,0.3-4.2-0.6c-0.5-0.9,0.7-2.4,1.9-3.8c1.5-1.8,3.2-3.9,2.1-6C35,69.6,32.3,69.8,30,70  c-1.8,0.1-3.7,0.3-4.1-0.6c-0.5-0.9,0.7-2.4,1.9-3.8c1.5-1.8,3.2-3.9,2.1-6c-1.1-2.1-3.7-1.9-6.1-1.7c-1.8,0.1-3.7,0.3-4.1-0.6  c-0.5-0.9,0.7-2.4,1.9-3.8c1.5-1.8,3.2-3.9,2.1-6c-1.1-2.1-3.7-1.9-6.1-1.7c-1.8,0.1-3.7,0.3-4.1-0.6c-0.5-0.9,0.7-2.4,1.9-3.8  c1.5-1.8,3.2-3.9,2.1-6c-0.3-0.5-0.9-0.7-1.4-0.4c-0.5,0.3-0.7,0.9-0.4,1.4c0.5,0.9-0.7,2.4-1.9,3.8c-1.5,1.8-3.2,3.9-2.1,6  c1.1,2.1,3.7,1.9,6.1,1.7c1.8-0.1,3.7-0.3,4.1,0.6c0.5,0.9-0.7,2.4-1.9,3.8c-1.5,1.8-3.2,3.9-2.1,6s3.7,1.9,6.1,1.7  c1.8-0.1,3.7-0.3,4.1,0.6c0.5,0.9-0.7,2.4-1.9,3.8c-1.5,1.8-3.2,3.9-2.1,6c1.1,2.1,3.7,1.9,6.1,1.7c1.8-0.1,3.7-0.3,4.1,0.6  c0.5,0.9-0.7,2.4-1.9,3.8c-1.5,1.8-3.2,3.9-2.1,6c1.1,2.1,3.7,1.9,6.1,1.7c1.8-0.1,3.7-0.3,4.2,0.6c0.2,0.3,0.5,0.5,0.9,0.5  c0.2,0,0.3,0,0.5-0.1c0.5-0.3,0.7-0.9,0.4-1.4C41.3,81.6,38.6,81.8,36.3,82z"/><path d="M81.8,13.2c0,0-0.1-0.1-0.1-0.1c0,0-0.1,0-0.1,0.1l-0.7,1.5L79.2,15c0,0-0.1,0-0.1,0.1c0,0,0,0.1,0,0.1l1.3,1.1L80.2,18  c0,0,0,0.1,0.1,0.1c0,0,0,0,0.1,0c0,0,0,0,0.1,0l1.5-0.9l1.5,0.7c0,0,0.1,0,0.1,0c0,0,0.1-0.1,0-0.1l-0.4-1.6l1.1-1.2  c0,0,0-0.1,0-0.1c0,0-0.1-0.1-0.1-0.1l-1.7-0.2L81.8,13.2z"/><path d="M54.5,83l-0.8-1.5c0,0-0.1-0.1-0.1-0.1c0,0-0.1,0-0.1,0.1l-0.7,1.5l-1.7,0.3c0,0-0.1,0-0.1,0.1c0,0,0,0.1,0,0.1l1.3,1.1  l-0.2,1.7c0,0,0,0.1,0.1,0.1c0,0,0,0,0.1,0c0,0,0,0,0.1,0l1.5-0.9l1.5,0.7c0,0,0.1,0,0.1,0c0,0,0.1-0.1,0-0.1l-0.4-1.6l1.1-1.2  c0,0,0-0.1,0-0.1c0,0-0.1-0.1-0.1-0.1L54.5,83z"/><path d="M20.7,78.6l-0.8-1.5c0,0-0.1-0.1-0.1-0.1c0,0-0.1,0-0.1,0.1L19,78.6L17.4,79c0,0-0.1,0-0.1,0.1c0,0,0,0.1,0,0.1l1.3,1.1  L18.4,82c0,0,0,0.1,0.1,0.1c0,0,0,0,0.1,0c0,0,0,0,0.1,0l1.5-0.9l1.5,0.7c0,0,0.1,0,0.1,0c0,0,0.1-0.1,0-0.1l-0.4-1.6l1.2-1.2  c0,0,0-0.1,0-0.1c0,0-0.1-0.1-0.1-0.1L20.7,78.6z"/><path d="M35.1,49.2c-0.1-0.1-0.1-0.1-0.2-0.1l-1.8,0.3l-1.2-1.3C31.8,48,31.7,48,31.6,48c-0.1,0-0.2,0.1-0.2,0.2L31.2,50l-1.6,0.8  c-0.1,0-0.1,0.1-0.1,0.2s0.1,0.2,0.1,0.2l1.6,0.8l0.2,1.8c0,0.1,0.1,0.2,0.2,0.2c0,0,0.1,0,0.1,0c0.1,0,0.1,0,0.2-0.1l1.3-1.3  l1.7,0.3c0.1,0,0.2,0,0.2-0.1c0.1-0.1,0.1-0.2,0-0.3L34.3,51l0.9-1.6C35.1,49.4,35.1,49.3,35.1,49.2z"/><path d="M84.6,49.1C84.5,49,84.4,49,84.3,49l-1.8,0.3L81.4,48c-0.1-0.1-0.2-0.1-0.3-0.1c-0.1,0-0.2,0.1-0.2,0.2l-0.3,1.8L79,50.7  c-0.1,0-0.1,0.1-0.1,0.2c0,0.1,0.1,0.2,0.1,0.2l1.6,0.8l0.2,1.8c0,0.1,0.1,0.2,0.2,0.2c0,0,0.1,0,0.1,0c0.1,0,0.1,0,0.2-0.1l1.3-1.3  l1.7,0.3c0.1,0,0.2,0,0.2-0.1c0.1-0.1,0.1-0.2,0-0.3l-0.8-1.6l0.9-1.6C84.6,49.3,84.6,49.2,84.6,49.1z"/><path d="M69.9,51.4c-2.6-2.7-8.3-6.6-12.8-8.1c-5.7-1.9-10.5-4.9-14.3-8.9L41,32.7c0.2-0.3,0.3-0.6,0.3-1c0-0.5-0.2-1-0.5-1.3  l-1.6-1.7c-0.3-0.4-0.8-0.6-1.3-0.6c-0.2,0-0.5,0-0.7,0.1l-1-1c-0.3-0.3-0.7-0.5-1.1-0.5c-0.4,0-0.8,0.2-1.2,0.5l-4.8,4.6  c-0.3,0.3-0.5,0.7-0.5,1.1c0,0.4,0.2,0.8,0.5,1.2l1,1c-0.3,0.7-0.2,1.5,0.3,2l1.6,1.7c0.4,0.4,0.9,0.6,1.3,0.6c0.2,0,0.5,0,0.7-0.1  l1.9,1.9c3.8,3.9,6.5,8.9,8.2,14.6c1.5,4.9,5.3,10.7,7.4,13L73,91.3c0.6,0.6,1.4,1,2.2,1c0,0,0.1,0,0.1,0c0.8,0,1.6-0.3,2.2-0.9  l13.7-13.1c0.6-0.6,1-1.4,1-2.2c0-0.9-0.3-1.7-0.9-2.3L69.9,51.4z M35,28.9l0.6,0.6l-4.3,4.1L30.7,33L35,28.9z M31.9,35.8l5.9-5.7  l1.5,1.5l-5.9,5.7L31.9,35.8z M35.6,38l4-3.9l1.6,1.7c1.9,2,4.1,3.8,6.5,5.3l-5.5,5.2c-1.4-2.4-3-4.6-4.9-6.5L35.6,38z M89.8,76.9  L76.1,90c-0.2,0.2-0.5,0.3-0.8,0.3c-0.3,0-0.6-0.1-0.8-0.4L53,67.5c-2-2.1-5.6-7.6-7-12.2c-0.7-2.5-1.7-4.9-2.8-7.1l6.3-6  c2.1,1.2,4.4,2.2,6.9,3c4.5,1.5,10,5.4,12,7.5l21.4,22.5c0.2,0.2,0.3,0.5,0.3,0.8C90.2,76.4,90.1,76.7,89.8,76.9z"/><path d="M71.4,59.3c-2.2-2.3-4.8-3.9-7.4-4.5c-2.8-0.6-5.2-0.1-6.9,1.4c-3.3,3.2-2.3,9.5,2.4,14.4c2.2,2.3,4.8,3.9,7.4,4.5  c0.8,0.2,1.5,0.3,2.3,0.3c1.8,0,3.4-0.6,4.6-1.7c1.6-1.6,2.3-4,1.8-6.8C75.1,64.3,73.6,61.6,71.4,59.3z M72.4,72.2  c-1.1,1.1-2.9,1.4-5,0.9c-2.2-0.5-4.5-1.9-6.4-3.9c-3.8-3.9-4.9-9.2-2.4-11.6c0.8-0.8,1.9-1.2,3.2-1.2c0.6,0,1.2,0.1,1.8,0.2  c2.2,0.5,4.5,1.9,6.4,3.9c1.9,2,3.2,4.3,3.6,6.6C74,69.4,73.6,71.1,72.4,72.2z"/><path d="M29.7,28.5c0.3,0,0.5-0.1,0.7-0.3c0.4-0.4,0.4-1,0-1.4l-5.2-5.2c-0.4-0.4-1-0.4-1.4,0s-0.4,1,0,1.4l5.2,5.2  C29.2,28.4,29.5,28.5,29.7,28.5z"/><path d="M21,24.5c-0.4,0.4-0.4,1,0,1.4l5.2,5.2c0.2,0.2,0.5,0.3,0.7,0.3s0.5-0.1,0.7-0.3c0.4-0.4,0.4-1,0-1.4l-5.2-5.2  C22,24.1,21.3,24.1,21,24.5z"/><path d="M32.8,25.7c0.3,0,0.5-0.1,0.7-0.3c0.4-0.4,0.4-1,0-1.4l-5.2-5.2c-0.4-0.4-1-0.4-1.4,0s-0.4,1,0,1.4l5.2,5.2  C32.3,25.6,32.5,25.7,32.8,25.7z"/><path d="M15.1,20.5c0.6,0.6,1.6,0.8,2.4,0.6l0.9,0.9c0.4,0.4,0.9,0.6,1.3,0.6s1-0.2,1.3-0.6l2.1-2.1c0.4-0.4,0.6-0.8,0.6-1.3  c0-0.5-0.2-1-0.6-1.3l-0.9-0.9c0.1-0.2,0.1-0.5,0.1-0.7c0-0.6-0.2-1.2-0.7-1.6l-3.3-3.3c-0.7-0.7-2-0.7-2.7,0l-3.9,3.9  c-0.4,0.4-0.6,0.8-0.6,1.3c0,0.5,0.2,1,0.6,1.3L15.1,20.5z M19.7,20.5L19,19.8l2-2l0.6,0.6L19.7,20.5z M17,12.1l3.2,3.2  c0.1,0.1,0.1,0.2,0.1,0.2s0,0.1-0.1,0.2c0,0,0,0,0,0l-3.3,3.3c-0.1,0.1-0.3,0.1-0.5,0l-3.2-3.2L17,12.1z"/><text x="0" y="115" fill="#000000" font-size="5px" font-weight="bold" font-family="'Helvetica Neue', Helvetica, Arial-Unicode, Arial, Sans-serif">Created by Made Somewhere</text><text x="0" y="120" fill="#000000" font-size="5px" font-weight="bold" font-family="'Helvetica Neue', Helvetica, Arial-Unicode, Arial, Sans-serif">from the Noun Project</text></svg>